HIERARCHY
ROOT Hips
{
	OFFSET 0.000000 87.230942 0.000000
	CHANNELS 6 Xposition Yposition Zposition Xrotation Yrotation Zrotation
	JOINT Pelvis
	{
		OFFSET 0.000000 0.000000 0.000000
		CHANNELS 3 Xrotation Yrotation Zrotation
		JOINT LeftUpLeg
		{
			OFFSET 12.017000 -9.376404 -2.439400
			CHANNELS 3 Xrotation Yrotation Zrotation
			JOINT LeftLeg
			{
				OFFSET -0.007312 -32.846973 2.110600
				CHANNELS 3 Xrotation Yrotation Zrotation
				JOINT LeftFoot
				{
					OFFSET 0.007312 -32.065170 -0.570400
					CHANNELS 3 Xrotation Yrotation Zrotation
					JOINT LeftToeBase
					{
						OFFSET 0.728300 -11.045900 13.180700
						CHANNELS 3 Xrotation Yrotation Zrotation
						End Site
						{
							OFFSET 0.000000 17.212589 0.000000
						}
					}
				}
				JOINT LeftPantLeg
				{
					OFFSET 0.002788 -16.709013 -3.143600
					CHANNELS 3 Xrotation Yrotation Zrotation
					End Site
					{
						OFFSET -0.605125 24.528742 0.000000
					}
				}
			}
			JOINT Left_Butt
			{
				OFFSET -6.630234 1.326584 -3.183700
				CHANNELS 3 Xrotation Yrotation Zrotation
				End Site
				{
					OFFSET -0.498041 20.188049 0.000000
				}
			}
		}
		JOINT RightUpLeg
		{
			OFFSET -11.717000 -9.376404 -2.439400
			CHANNELS 3 Xrotation Yrotation Zrotation
			JOINT RightLeg
			{
				OFFSET -0.003241 -32.846912 2.110600
				CHANNELS 3 Xrotation Yrotation Zrotation
				JOINT RightFoot
				{
					OFFSET 0.003241 -32.065136 -0.570500
					CHANNELS 3 Xrotation Yrotation Zrotation
					JOINT RightToeBase
					{
						OFFSET -0.728300 -11.045901 13.180700
						CHANNELS 3 Xrotation Yrotation Zrotation
						End Site
						{
							OFFSET 0.000000 17.212593 0.000000
						}
					}
				}
				JOINT RightPantLeg
				{
					OFFSET 0.008142 -16.708982 -3.143700
					CHANNELS 3 Xrotation Yrotation Zrotation
					End Site
					{
						OFFSET 0.605088 24.528715 0.000000
					}
				}
			}
			JOINT Right_Butt
			{
				OFFSET 6.630732 1.326584 -3.183700
				CHANNELS 3 Xrotation Yrotation Zrotation
				End Site
				{
					OFFSET 0.498015 20.188240 0.000000
				}
			}
		}
	}
	JOINT Spine
	{
		OFFSET -0.062400 7.848404 3.918300
		CHANNELS 3 Xrotation Yrotation Zrotation
		JOINT Spine1
		{
			OFFSET -0.072800 11.422302 0.713400
			CHANNELS 3 Xrotation Yrotation Zrotation
			JOINT Spine2
			{
				OFFSET -0.083200 13.054001 -1.931600
				CHANNELS 3 Xrotation Yrotation Zrotation
				JOINT Neck
				{
					OFFSET -0.092200 14.121796 -5.138800
					CHANNELS 3 Xrotation Yrotation Zrotation
					JOINT Head
					{
						OFFSET 0.000200 10.447403 -0.842000
						CHANNELS 3 Xrotation Yrotation Zrotation
						JOINT Visor
						{
							OFFSET 0.457100 25.671204 16.550400
							CHANNELS 3 Xrotation Yrotation Zrotation
							End Site
							{
								OFFSET 0.000000 26.061493 0.000000
							}
						}
						JOINT HairMidA
						{
							OFFSET 0.459400 31.585403 8.437400
							CHANNELS 3 Xrotation Yrotation Zrotation
							End Site
							{
								OFFSET 0.000000 26.061493 0.000000
							}
						}
						JOINT HairMidB
						{
							OFFSET 0.464000 33.309204 -8.389700
							CHANNELS 3 Xrotation Yrotation Zrotation
							End Site
							{
								OFFSET 0.000000 26.061493 0.000000
							}
						}
						JOINT HairMidC
						{
							OFFSET 0.466600 27.991196 -17.375099
							CHANNELS 3 Xrotation Yrotation Zrotation
							End Site
							{
								OFFSET 0.000000 26.061493 0.000000
							}
						}
						JOINT HairMidD
						{
							OFFSET 0.467700 17.888092 -21.169500
							CHANNELS 3 Xrotation Yrotation Zrotation
							End Site
							{
								OFFSET 0.000000 26.061493 0.000000
							}
						}
						JOINT HairMidE
						{
							OFFSET 5.325700 3.514603 -14.369699
							CHANNELS 3 Xrotation Yrotation Zrotation
							End Site
							{
								OFFSET 0.000000 26.061493 0.000000
							}
						}
						JOINT HairMidF
						{
							OFFSET -4.394100 3.514603 -14.372400
							CHANNELS 3 Xrotation Yrotation Zrotation
							End Site
							{
								OFFSET 0.000000 26.061493 0.000000
							}
						}
						JOINT HairLeftA
						{
							OFFSET 15.319900 25.746506 2.623300
							CHANNELS 3 Xrotation Yrotation Zrotation
							End Site
							{
								OFFSET 0.000000 26.061493 0.000000
							}
						}
						JOINT HairLeftB
						{
							OFFSET 12.619500 29.289398 -8.731499
							CHANNELS 3 Xrotation Yrotation Zrotation
							End Site
							{
								OFFSET 0.000000 26.061493 0.000000
							}
						}
						JOINT HairLeftC
						{
							OFFSET 15.714800 15.959900 2.909800
							CHANNELS 3 Xrotation Yrotation Zrotation
							End Site
							{
								OFFSET 0.000000 26.061493 0.000000
							}
						}
						JOINT HairLeftD
						{
							OFFSET 16.101700 18.437408 -7.553200
							CHANNELS 3 Xrotation Yrotation Zrotation
							End Site
							{
								OFFSET 0.000000 26.061493 0.000000
							}
						}
						JOINT HairLeftE
						{
							OFFSET 9.731900 17.915009 -18.316799
							CHANNELS 3 Xrotation Yrotation Zrotation
							End Site
							{
								OFFSET 0.000000 26.061493 0.000000
							}
						}
						JOINT HairLeftF
						{
							OFFSET 11.204300 4.953598 -9.668100
							CHANNELS 3 Xrotation Yrotation Zrotation
							End Site
							{
								OFFSET 0.000000 26.061493 0.000000
							}
						}
						JOINT HairRightA
						{
							OFFSET -14.397900 25.746307 2.615100
							CHANNELS 3 Xrotation Yrotation Zrotation
							End Site
							{
								OFFSET 0.000000 26.061493 0.000000
							}
						}
						JOINT HairRightB
						{
							OFFSET -11.691200 29.289200 -8.738199
							CHANNELS 3 Xrotation Yrotation Zrotation
							End Site
							{
								OFFSET 0.000000 26.061493 0.000000
							}
						}
						JOINT HairRightC
						{
							OFFSET -14.792900 15.959702 2.901400
							CHANNELS 3 Xrotation Yrotation Zrotation
							End Site
							{
								OFFSET 0.000000 26.061493 0.000000
							}
						}
						JOINT HairRightD
						{
							OFFSET -15.174000 18.437195 -7.561900
							CHANNELS 3 Xrotation Yrotation Zrotation
							End Site
							{
								OFFSET 0.000000 26.061493 0.000000
							}
						}
						JOINT HairRightE
						{
							OFFSET -8.798200 17.914902 -18.322001
							CHANNELS 3 Xrotation Yrotation Zrotation
							End Site
							{
								OFFSET 0.000000 26.061493 0.000000
							}
						}
						JOINT HairRightF
						{
							OFFSET -10.275200 4.953506 -9.674099
							CHANNELS 3 Xrotation Yrotation Zrotation
							End Site
							{
								OFFSET 0.000000 26.061493 0.000000
							}
						}
					}
				}
				JOINT LeftShoulder
				{
					OFFSET 5.133500 7.341202 -1.867600
					CHANNELS 3 Xrotation Yrotation Zrotation
					JOINT LeftArm
					{
						OFFSET 8.072663 0.936867 -2.176600
						CHANNELS 3 Xrotation Yrotation Zrotation
						JOINT LeftForeArm
						{
							OFFSET 31.271999 0.000000 0.000000
							CHANNELS 3 Xrotation Yrotation Zrotation
							JOINT LeftHand
							{
								OFFSET 31.771030 0.000000 0.000000
								CHANNELS 3 Xrotation Yrotation Zrotation
								JOINT LeftHandThumb1
								{
									OFFSET 2.886520 -2.557846 4.416640
									CHANNELS 3 Xrotation Yrotation Zrotation
									JOINT LeftHandThumb2
									{
										OFFSET 2.371025 -1.368912 1.368911
										CHANNELS 3 Xrotation Yrotation Zrotation
										JOINT LeftHandThumb3
										{
											OFFSET 2.243378 -1.295212 1.295213
											CHANNELS 3 Xrotation Yrotation Zrotation
											End Site
											{
												OFFSET -0.332611 2.876945 0.020015
											}
										}
									}
								}
								JOINT LeftHandIndex1
								{
									OFFSET 8.568985 -0.641945 3.119977
									CHANNELS 3 Xrotation Yrotation Zrotation
									JOINT LeftHandIndex2
									{
										OFFSET 3.348503 0.000000 0.000000
										CHANNELS 3 Xrotation Yrotation Zrotation
										JOINT LeftHandIndex3
										{
											OFFSET 3.314552 0.000000 0.000000
											CHANNELS 3 Xrotation Yrotation Zrotation
											End Site
											{
												OFFSET -1.032898 3.075485 0.678796
											}
										}
									}
								}
								JOINT LeftHandMiddle1
								{
									OFFSET 8.124603 0.000000 0.000000
									CHANNELS 3 Xrotation Yrotation Zrotation
									JOINT LeftHandMiddle2
									{
										OFFSET 4.166275 0.000000 0.000000
										CHANNELS 3 Xrotation Yrotation Zrotation
										JOINT LeftHandMiddle3
										{
											OFFSET 3.018135 0.000000 0.000000
											CHANNELS 3 Xrotation Yrotation Zrotation
											End Site
											{
												OFFSET -1.032700 2.767982 0.617226
											}
										}
									}
								}
								JOINT LeftHandRing1
								{
									OFFSET 8.571686 -0.031357 -2.884048
									CHANNELS 3 Xrotation Yrotation Zrotation
									JOINT LeftHandRing2
									{
										OFFSET 3.671181 0.000000 0.000000
										CHANNELS 3 Xrotation Yrotation Zrotation
										JOINT LeftHandRing3
										{
											OFFSET 2.728851 0.000000 0.000000
											CHANNELS 3 Xrotation Yrotation Zrotation
											End Site
											{
												OFFSET -0.815796 2.539223 0.577389
											}
										}
									}
								}
								JOINT LeftHandPinky1
								{
									OFFSET 7.854515 -0.675232 -5.213020
									CHANNELS 3 Xrotation Yrotation Zrotation
									JOINT LeftHandPinky2
									{
										OFFSET 3.068596 0.000000 0.000000
										CHANNELS 3 Xrotation Yrotation Zrotation
										JOINT LeftHandPinky3
										{
											OFFSET 2.396042 0.000000 0.000000
											CHANNELS 3 Xrotation Yrotation Zrotation
											End Site
											{
												OFFSET -0.524597 2.267998 0.567429
											}
										}
									}
								}
							}
							JOINT LeftSleeve
							{
								OFFSET 19.684509 -0.200119 0.476146
								CHANNELS 3 Xrotation Yrotation Zrotation
								End Site
								{
									OFFSET -0.031017 25.731133 -0.002868
								}
							}
						}
					}
				}
				JOINT RightShoulder
				{
					OFFSET -4.395900 7.341202 -1.870200
					CHANNELS 3 Xrotation Yrotation Zrotation
					JOINT RightArm
					{
						OFFSET -8.071453 0.936867 -2.181100
						CHANNELS 3 Xrotation Yrotation Zrotation
						JOINT RightForeArm
						{
							OFFSET -31.272011 0.000000 0.000000
							CHANNELS 3 Xrotation Yrotation Zrotation
							JOINT RightHand
							{
								OFFSET -31.771019 0.000000 0.000000
								CHANNELS 3 Xrotation Yrotation Zrotation
								JOINT RightHandThumb1
								{
									OFFSET -2.886520 -2.557808 4.416626
									CHANNELS 3 Xrotation Yrotation Zrotation
									JOINT RightHandThumb2
									{
										OFFSET -2.371056 -1.368927 1.368928
										CHANNELS 3 Xrotation Yrotation Zrotation
										JOINT RightHandThumb3
										{
											OFFSET -2.243362 -1.295204 1.295206
											CHANNELS 3 Xrotation Yrotation Zrotation
											End Site
											{
												OFFSET 0.332642 2.876938 0.020047
											}
										}
									}
								}
								JOINT RightHandIndex1
								{
									OFFSET -8.568993 -0.641953 3.120017
									CHANNELS 3 Xrotation Yrotation Zrotation
									JOINT RightHandIndex2
									{
										OFFSET -3.348518 0.000000 0.000000
										CHANNELS 3 Xrotation Yrotation Zrotation
										JOINT RightHandIndex3
										{
											OFFSET -3.314552 0.000000 0.000000
											CHANNELS 3 Xrotation Yrotation Zrotation
											End Site
											{
												OFFSET 1.032898 3.075478 0.678804
											}
										}
									}
								}
								JOINT RightHandMiddle1
								{
									OFFSET -8.124588 0.000000 0.000000
									CHANNELS 3 Xrotation Yrotation Zrotation
									JOINT RightHandMiddle2
									{
										OFFSET -4.166275 0.000000 0.000000
										CHANNELS 3 Xrotation Yrotation Zrotation
										JOINT RightHandMiddle3
										{
											OFFSET -3.018097 0.000000 0.000000
											CHANNELS 3 Xrotation Yrotation Zrotation
											End Site
											{
												OFFSET 1.032700 2.767937 0.617197
											}
										}
									}
								}
								JOINT RightHandRing1
								{
									OFFSET -8.571747 -0.031349 -2.884061
									CHANNELS 3 Xrotation Yrotation Zrotation
									JOINT RightHandRing2
									{
										OFFSET -3.671204 0.000000 0.000000
										CHANNELS 3 Xrotation Yrotation Zrotation
										JOINT RightHandRing3
										{
											OFFSET -2.728874 0.000000 0.000000
											CHANNELS 3 Xrotation Yrotation Zrotation
											End Site
											{
												OFFSET 0.815804 2.539261 0.577413
											}
										}
									}
								}
								JOINT RightHandPinky1
								{
									OFFSET -7.854561 -0.675247 -5.212970
									CHANNELS 3 Xrotation Yrotation Zrotation
									JOINT RightHandPinky2
									{
										OFFSET -3.068550 0.000000 0.000000
										CHANNELS 3 Xrotation Yrotation Zrotation
										JOINT RightHandPinky3
										{
											OFFSET -2.395981 0.000000 0.000000
											CHANNELS 3 Xrotation Yrotation Zrotation
											End Site
											{
												OFFSET 0.524605 2.267952 0.567413
											}
										}
									}
								}
							}
							JOINT RightSleeve
							{
								OFFSET -19.684753 -0.200165 0.476065
								CHANNELS 3 Xrotation Yrotation Zrotation
								End Site
								{
									OFFSET 0.031342 25.731255 -0.002917
								}
							}
						}
					}
				}
				JOINT Hood
				{
					OFFSET 0.369700 14.447800 -5.317800
					CHANNELS 3 Xrotation Yrotation Zrotation
					JOINT Hood1
					{
						OFFSET 0.001700 -5.553802 -5.895100
						CHANNELS 3 Xrotation Yrotation Zrotation
						JOINT Hood2
						{
							OFFSET -0.000200 -8.380501 0.763600
							CHANNELS 3 Xrotation Yrotation Zrotation
							End Site
							{
								OFFSET 0.000000 8.415215 0.000000
							}
						}
					}
				}
				JOINT Left_Breast
				{
					OFFSET 5.682500 3.120102 3.188800
					CHANNELS 3 Xrotation Yrotation Zrotation
					End Site
					{
						OFFSET 0.000000 10.528564 0.000000
					}
				}
				JOINT Right_Breast
				{
					OFFSET -4.947600 3.120102 3.185900
					CHANNELS 3 Xrotation Yrotation Zrotation
					End Site
					{
						OFFSET 0.000000 10.528564 0.000000
					}
				}
				JOINT Whistle
				{
					OFFSET 0.368200 11.471298 0.095400
					CHANNELS 3 Xrotation Yrotation Zrotation
					JOINT Whistle1
					{
						OFFSET -0.002000 -6.349899 7.479800
						CHANNELS 3 Xrotation Yrotation Zrotation
						JOINT Whistle2
						{
							OFFSET -0.001300 -8.217598 4.717600
							CHANNELS 3 Xrotation Yrotation Zrotation
							End Site
							{
								OFFSET 0.000000 9.475479 0.000000
							}
						}
					}
				}
			}
		}
		JOINT Belly
		{
			OFFSET 0.212400 1.593002 3.163700
			CHANNELS 3 Xrotation Yrotation Zrotation
			End Site
			{
				OFFSET 0.000000 7.496635 0.000000
			}
		}
	}
	JOINT FitGrandmaFacialAnim_Joint
	{
		OFFSET 1.150000 -86.211197 -1.220100
		CHANNELS 3 Xrotation Yrotation Zrotation
		End Site
		{
			OFFSET 0.000000 31.666618 0.000000
		}
	}
}
MOTION
Frames: 4
Frame Time: 0.016667
-1.401520 77.659775 0.296949 9.530628 -61.580139 10.129243 0.000000 -0.000001 0.000000 -34.260202 12.360077 24.968706 38.594889 -8.043933 1.252491 -10.580545 -1.497952 -17.263559 0.000000 0.000000 -0.000000 -0.000000 0.000001 -0.000001 -0.000004 -0.000000 -0.000002 -27.802625 -21.072722 -33.468210 37.981132 4.976462 -4.321245 -17.440862 -0.607944 24.099674 0.000000 -0.000000 -0.000000 -0.000002 -0.000001 -0.000001 0.000000 0.000000 -0.000000 15.063868 -0.359919 -4.271040 5.872399 0.563941 -2.798215 5.868714 0.648184 -2.860163 -3.632881 1.437145 3.747501 -20.005955 54.836768 2.407365 0.000001 0.000000 0.000000 0.000001 0.000000 0.000000 0.000001 0.000000 0.000000 0.000001 0.000000 0.000000 0.000001 0.000000 0.000000 0.000001 0.000000 0.000000 0.000001 0.000000 0.000000 0.000001 0.000000 0.000000 0.000001 0.000000 0.000000 0.000001 0.000000 0.000000 0.000001 0.000000 0.000000 0.000001 0.000000 0.000000 0.000001 0.000000 0.000000 0.000001 0.000000 0.000000 0.000001 0.000000 0.000000 0.000001 0.000000 0.000000 0.000001 0.000000 0.000000 0.000001 0.000000 0.000000 0.000001 0.000000 0.000000 1.828104 -3.192690 -12.271572 -39.387403 26.350494 -34.911105 0.429350 -46.808444 0.416183 -10.315060 -0.130719 0.363016 40.109931 -15.297206 -0.360491 5.639820 28.097914 11.338829 -0.000000 0.000001 0.000000 6.882243 2.840040 -61.140397 8.247984 7.640028 -89.897878 -0.000002 -0.000002 0.000002 -2.345506 4.688848 -62.655210 8.754148 9.897043 -87.051328 -0.000001 0.000001 -0.000003 -9.042451 10.045671 -60.766171 8.524097 9.508854 -66.893042 0.000001 -0.000002 -0.000002 -17.946932 14.754969 -51.485864 8.868421 8.667033 -84.811989 -0.000003 0.000000 0.000000 0.000003 0.000000 -0.000002 0.632606 7.257351 8.700387 7.936008 -9.680150 53.429916 -22.867427 36.194692 17.955447 -27.369941 10.432888 -17.813548 -2.346180 -6.100564 10.731433 2.364038 -23.806303 -8.771082 0.000000 0.000001 0.000004 -0.054757 0.532089 0.738736 0.019775 -0.087311 5.078504 -0.000001 0.000002 0.000005 0.348262 -5.918532 2.583823 1.432597 -4.204216 24.052096 0.000001 -0.000000 0.000000 1.205810 -11.756074 4.154770 1.794849 -3.771870 26.865415 -0.000000 0.000000 -0.000001 2.126202 -19.166885 11.319962 3.354769 -2.122219 18.828542 -0.000001 0.000000 -0.000000 -0.000002 -0.000000 -0.000001 0.000002 0.000001 -0.000002 0.000002 0.000001 -0.000002 0.000002 0.000001 -0.000002 0.000002 0.000001 -0.000002 0.000002 0.000001 -0.000002 0.000002 0.000001 -0.000001 -0.000000 -0.000000 -0.000000 -0.000000 -0.000000 -0.000000 0.000001 -0.000001 0.000001 0.000000 -0.000001 0.000000 
-1.518991 77.958771 1.256090 9.336757 -61.853380 9.839116 -0.000000 0.000002 0.000000 -33.632890 12.831471 24.586712 39.047860 -7.841827 1.266932 -11.563661 -1.528867 -16.684318 0.000000 -0.000000 0.000000 0.000000 -0.000001 0.000003 -0.000003 -0.000002 -0.000002 -26.380559 -19.611070 -32.777388 37.275638 2.940960 -4.020588 -15.404085 -1.083882 24.235810 0.000000 0.000000 0.000000 0.000000 -0.000001 -0.000000 0.000002 0.000001 -0.000001 15.060239 -0.387277 -4.269830 5.808929 0.512824 -2.771124 5.805199 0.597256 -2.833448 -3.638492 1.536351 3.725352 -19.889615 54.758122 2.275291 0.000000 0.000000 0.000000 0.000000 0.000000 0.000000 0.000000 0.000000 0.000000 0.000000 0.000000 0.000000 0.000000 0.000000 0.000000 0.000000 0.000000 0.000000 0.000000 0.000000 0.000000 0.000000 0.000000 0.000000 0.000000 0.000000 0.000000 0.000000 0.000000 0.000000 0.000000 0.000000 0.000000 0.000000 0.000000 0.000000 0.000000 0.000000 0.000000 0.000000 0.000000 0.000000 0.000000 0.000000 0.000000 0.000000 0.000000 0.000000 0.000000 0.000000 0.000000 0.000000 0.000000 0.000000 0.000000 0.000000 0.000000 1.811775 -3.211867 -12.344142 -39.504117 26.319827 -34.529331 1.101684 -46.417931 0.952190 -9.885018 0.827932 1.334661 40.109934 -15.297209 -0.360492 5.639823 28.097921 11.338828 0.000001 -0.000000 0.000002 6.883833 2.854600 -61.141955 8.247981 7.640028 -89.897878 -0.000002 -0.000000 -0.000001 -2.345669 4.688758 -62.645279 8.754117 9.897061 -87.051335 -0.000000 0.000002 -0.000002 -9.042449 10.045671 -60.766178 8.524038 9.508705 -66.885816 0.000000 -0.000002 -0.000002 -17.946927 14.754969 -51.485860 8.868219 8.667087 -84.803840 0.000002 -0.000000 0.000000 -0.000001 -0.000001 0.000001 0.692441 7.427221 8.935632 5.481158 -8.784161 52.938768 -21.606675 32.865631 15.936066 -24.516486 8.994961 -17.062788 -4.116518 -6.706662 9.307949 1.886941 -23.619566 -9.140358 -0.000000 0.000001 -0.000004 -0.010643 0.533220 -1.327958 0.017486 -0.087291 5.720678 0.000000 0.000001 0.000003 0.409164 -5.946831 2.284650 1.424256 -4.181298 21.464416 0.000000 0.000000 -0.000003 0.746798 -11.971088 3.731574 1.819257 -3.840923 25.204779 0.000001 0.000000 -0.000003 1.682351 -18.956606 9.983743 3.331142 -2.133641 16.242132 0.000001 -0.000001 0.000002 -0.000001 -0.000001 0.000001 -0.000000 0.000001 0.000000 -0.000000 0.000001 0.000000 -0.000000 0.000001 0.000000 -0.000000 0.000001 0.000000 -0.000000 0.000001 0.000000 -0.000000 0.000001 0.000001 -0.000000 0.000001 0.000000 -0.000000 0.000001 0.000000 0.000003 -0.000001 -0.000000 -0.000000 0.000002 0.000000 
-1.637521 78.259819 2.218770 9.135998 -62.128350 9.543082 -0.000000 -0.000000 -0.000000 -32.942873 13.301892 24.170615 39.406411 -7.598898 1.284976 -12.508617 -1.574066 -16.126922 -0.000000 -0.000000 -0.000000 0.000000 0.000002 -0.000002 -0.000003 -0.000001 -0.000000 -25.030779 -18.137035 -32.158651 36.637770 0.880417 -3.716310 -13.262658 -1.553807 24.308662 0.000000 0.000000 -0.000000 -0.000003 0.000000 0.000004 0.000001 0.000000 -0.000001 15.048660 -0.461490 -4.237894 5.633802 0.369650 -2.696472 5.629851 0.454783 -2.759859 -3.655642 1.814227 3.662541 -19.581881 54.532353 1.920069 0.000000 0.000001 -0.000000 0.000000 0.000001 -0.000000 0.000000 0.000001 -0.000000 0.000000 0.000001 -0.000000 0.000000 0.000001 -0.000000 0.000000 0.000001 -0.000000 0.000000 0.000001 -0.000000 0.000000 0.000001 -0.000000 0.000000 0.000001 -0.000000 0.000000 0.000001 -0.000000 0.000000 0.000001 -0.000000 0.000000 0.000001 -0.000000 0.000000 0.000001 -0.000000 0.000000 0.000001 -0.000000 0.000000 0.000001 -0.000000 0.000000 0.000001 -0.000000 0.000000 0.000001 -0.000000 0.000000 0.000001 -0.000000 0.000000 0.000001 -0.000000 1.851096 -3.205584 -12.196506 -39.716611 26.246981 -34.186514 2.759056 -45.717434 2.309601 -9.601692 1.846984 2.522830 40.109931 -15.297208 -0.360491 5.639824 28.097920 11.338833 -0.000000 -0.000003 0.000004 6.885299 2.867570 -61.143259 8.247983 7.640030 -89.897878 -0.000002 -0.000002 0.000000 -2.345726 4.688735 -62.636373 8.754106 9.897067 -87.051260 -0.000001 0.000002 -0.000001 -9.042445 10.045671 -60.766178 8.523963 9.508572 -66.879300 0.000000 -0.000001 0.000000 -17.946925 14.754973 -51.485860 8.868039 8.667120 -84.796682 -0.000004 -0.000000 -0.000002 0.000003 -0.000000 -0.000000 0.772931 7.546818 9.119212 2.943606 -7.711097 52.563445 -20.404019 29.266121 13.879043 -21.562917 7.631761 -16.206038 -6.237935 -7.289045 7.642146 1.335635 -23.383236 -9.554176 -0.000000 0.000002 0.000002 0.036201 0.531744 -3.691428 0.018925 -0.086993 6.453133 0.000000 0.000002 0.000000 0.478645 -5.980259 1.942313 1.420330 -4.160091 18.500771 -0.000000 -0.000001 -0.000004 0.223187 -12.207961 3.248204 1.839680 -3.913908 23.324292 0.000001 -0.000001 0.000001 1.189583 -18.704704 8.461771 3.307092 -2.146769 13.290754 -0.000002 0.000001 0.000002 -0.000002 -0.000001 -0.000002 -0.000001 0.000000 -0.000001 -0.000001 0.000000 -0.000001 -0.000001 0.000000 -0.000001 -0.000001 0.000000 -0.000001 -0.000001 0.000000 -0.000001 -0.000001 0.000000 -0.000000 -0.000001 0.000003 -0.000002 -0.000001 0.000003 -0.000002 0.000001 -0.000001 0.000000 -0.000000 -0.000000 -0.000000 
-1.757383 78.554314 3.183422 8.940241 -62.397077 9.247587 -0.000000 -0.000002 -0.000000 -32.220779 13.756451 23.729590 39.707178 -7.323866 1.305584 -13.428178 -1.630672 -15.590049 0.000000 0.000002 0.000000 -0.000001 -0.000000 -0.000001 -0.000002 0.000002 0.000001 -23.761043 -16.541031 -31.549655 36.172976 -1.195285 -3.404777 -11.098447 -2.013495 24.270218 0.000000 -0.000000 -0.000000 0.000001 -0.000001 -0.000003 0.000000 0.000000 -0.000001 15.027543 -0.573499 -4.179463 5.371683 0.150691 -2.585290 5.367415 0.236855 -2.650282 -3.683363 2.240241 3.564174 -19.144235 54.178307 1.405934 0.000001 -0.000000 -0.000000 0.000001 -0.000000 -0.000000 0.000001 -0.000000 -0.000000 0.000001 -0.000000 -0.000000 0.000001 -0.000000 -0.000000 0.000001 -0.000000 -0.000000 0.000001 -0.000000 -0.000000 0.000001 -0.000000 -0.000000 0.000001 -0.000000 -0.000000 0.000001 -0.000000 -0.000000 0.000001 -0.000000 -0.000000 0.000001 -0.000000 -0.000000 0.000001 -0.000000 -0.000000 0.000001 -0.000000 -0.000000 0.000001 -0.000000 -0.000000 0.000001 -0.000000 -0.000000 0.000001 -0.000000 -0.000000 0.000001 -0.000000 -0.000000 0.000001 -0.000000 -0.000000 1.843148 -3.270749 -12.215997 -40.079048 26.019766 -33.554199 4.817940 -44.880483 3.995121 -9.298821 2.592854 3.380243 40.109927 -15.297208 -0.360493 5.639822 28.097921 11.338828 -0.000001 0.000003 -0.000000 6.886535 2.878905 -61.144338 8.247983 7.640030 -89.897878 -0.000000 0.000001 0.000001 -2.345661 4.688642 -62.628477 8.754105 9.897057 -87.051143 -0.000000 -0.000004 -0.000000 -9.042449 10.045671 -60.766178 8.523927 9.508434 -66.873597 0.000003 0.000001 0.000002 -17.946921 14.754971 -51.485864 8.867856 8.667181 -84.790344 -0.000004 0.000000 -0.000003 0.000001 0.000000 -0.000001 0.851984 7.665273 9.321642 0.526168 -6.651997 52.259072 -19.353573 25.785863 11.962584 -18.611728 6.402516 -15.306775 -8.268324 -7.739944 6.081477 0.815461 -23.164149 -9.941017 0.000001 0.000001 0.000000 0.081626 0.527680 -5.928368 0.019939 -0.086725 7.147208 0.000000 0.000002 0.000000 0.550285 -6.015964 1.586696 1.421993 -4.150010 15.428267 0.000002 -0.000001 -0.000002 -0.337150 -12.451472 2.730648 1.855728 -3.992483 21.326388 0.000001 -0.000002 -0.000001 0.689159 -18.427459 6.871368 3.285330 -2.163367 10.191943 -0.000003 0.000001 0.000000 0.000001 0.000000 0.000003 0.000001 -0.000001 -0.000000 0.000001 -0.000001 -0.000000 0.000001 -0.000001 -0.000000 0.000001 -0.000001 -0.000000 0.000001 -0.000001 -0.000000 0.000001 -0.000001 -0.000000 0.000002 0.000000 -0.000002 0.000002 0.000000 -0.000002 0.000001 -0.000003 0.000000 -0.000000 -0.000002 -0.000000 
